<svg xmlns="http://www.w3.org/2000/svg" viewBox="0 0 960 420" width="960" height="420" role="img" aria-label="Entry price of four refurbished iPhone models on the French market">
<rect width="960" height="420" fill="#fffaf0"/>
<style>text{font-family:ui-sans-serif,system-ui,-apple-system,"Segoe UI",Roboto,sans-serif}</style>
<text x="64" y="26" font-size="15" font-weight="700" fill="#102019">Refurbished iPhone entry price · Back Market France</text>
<line x1="64" y1="364.0" x2="750" y2="364.0" stroke="#dcd6c8" stroke-width="1"/>
<text x="54" y="368.0" font-size="11" fill="#66736b" text-anchor="end">216 €</text>
<line x1="64" y1="284.0" x2="750" y2="284.0" stroke="#dcd6c8" stroke-width="1"/>
<text x="54" y="288.0" font-size="11" fill="#66736b" text-anchor="end">330 €</text>
<line x1="64" y1="204.0" x2="750" y2="204.0" stroke="#dcd6c8" stroke-width="1"/>
<text x="54" y="208.0" font-size="11" fill="#66736b" text-anchor="end">444 €</text>
<line x1="64" y1="124.0" x2="750" y2="124.0" stroke="#dcd6c8" stroke-width="1"/>
<text x="54" y="128.0" font-size="11" fill="#66736b" text-anchor="end">558 €</text>
<line x1="64" y1="44.0" x2="750" y2="44.0" stroke="#dcd6c8" stroke-width="1"/>
<text x="54" y="48.0" font-size="11" fill="#66736b" text-anchor="end">672 €</text>
<text x="64.0" y="384.0" font-size="11" fill="#66736b" text-anchor="middle">13 Aug 2026</text>
<text x="407.0" y="384.0" font-size="11" fill="#66736b" text-anchor="middle">26 Aug 2026</text>
<text x="750.0" y="384.0" font-size="11" fill="#66736b" text-anchor="middle">08 Sep 2026</text>
<path d="M64.0,316.9 L90.4,333.0 L116.8,324.5 L143.2,323.2 L169.5,314.1 L195.9,317.6 L222.3,319.0 L248.7,326.7 L275.1,321.1 L301.5,314.8 L327.8,316.9 L354.2,328.9 L380.6,323.9 L407.0,312.7 L433.4,316.9 L459.8,326.0 L486.2,309.9 L512.5,313.4 L538.9,309.9 L565.3,314.8 L591.7,305.7 L618.1,311.3 L644.5,312.0 L670.8,312.7 L697.2,318.3 L723.6,319.0 L750.0,304.3" fill="none" stroke="#1f7a5a" stroke-width="2.5" stroke-linejoin="round" stroke-linecap="round"/>
<circle cx="750.0" cy="304.3" r="4" fill="#1f7a5a"/>
<rect x="774" y="51" width="18" height="4" rx="2" fill="#1f7a5a"/>
<text x="800" y="59" font-size="12" fill="#102019">iPhone 13</text>
<text x="800" y="73" font-size="11" fill="#66736b">301 €</text>
<path d="M64.0,298.7 L90.4,305.7 L116.8,306.4 L143.2,305.7 L169.5,297.3 L195.9,298.0 L222.3,296.6 L248.7,302.9 L275.1,306.4 L301.5,293.8 L327.8,293.8 L354.2,299.4 L380.6,300.1 L407.0,300.1 L433.4,304.3 L459.8,300.8 L486.2,294.5 L512.5,293.8 L538.9,293.8 L565.3,300.1 L591.7,293.8 L618.1,298.0 L644.5,308.5 L670.8,297.3 L697.2,298.0 L723.6,302.9 L750.0,296.6" fill="none" stroke="#c2703d" stroke-width="2.5" stroke-linejoin="round" stroke-linecap="round"/>
<circle cx="750.0" cy="296.6" r="4" fill="#c2703d"/>
<rect x="774" y="75" width="18" height="4" rx="2" fill="#c2703d"/>
<text x="800" y="83" font-size="12" fill="#102019">iPhone 14</text>
<text x="800" y="97" font-size="11" fill="#66736b">312 €</text>
<path d="M64.0,236.3 L90.4,221.5 L116.8,214.5 L143.2,215.9 L169.5,225.7 L195.9,214.5 L222.3,222.9 L248.7,246.1 L275.1,227.1 L301.5,226.4 L327.8,227.8 L354.2,230.6 L380.6,228.5 L407.0,228.5 L433.4,232.1 L459.8,232.8 L486.2,232.1 L512.5,235.6 L538.9,232.8 L565.3,228.5 L591.7,225.7 L618.1,229.2 L644.5,229.2 L670.8,229.2 L697.2,235.6 L723.6,230.6 L750.0,221.5" fill="none" stroke="#4a6fa5" stroke-width="2.5" stroke-linejoin="round" stroke-linecap="round"/>
<circle cx="750.0" cy="221.5" r="4" fill="#4a6fa5"/>
<rect x="774" y="99" width="18" height="4" rx="2" fill="#4a6fa5"/>
<text x="800" y="107" font-size="12" fill="#102019">iPhone 15</text>
<text x="800" y="121" font-size="11" fill="#66736b">419 €</text>
<path d="M64.0,157.7 L90.4,157.7 L116.8,101.6 L143.2,122.0 L169.5,101.6 L195.9,112.8 L222.3,95.3 L248.7,123.4 L275.1,102.3 L301.5,114.9 L327.8,97.4 L354.2,109.3 L380.6,112.8 L407.0,117.0 L433.4,115.6 L459.8,116.3 L486.2,102.3 L512.5,75.0 L538.9,95.3 L565.3,96.0 L591.7,115.6 L618.1,122.7 L644.5,120.5 L670.8,130.4 L697.2,119.8 L723.6,121.3 L750.0,113.5" fill="none" stroke="#8a4f7d" stroke-width="2.5" stroke-linejoin="round" stroke-linecap="round"/>
<circle cx="750.0" cy="113.5" r="4" fill="#8a4f7d"/>
<rect x="774" y="123" width="18" height="4" rx="2" fill="#8a4f7d"/>
<text x="800" y="131" font-size="12" fill="#102019">iPhone 16</text>
<text x="800" y="145" font-size="11" fill="#66736b">573 €</text>
<text x="64" y="406" font-size="10.5" fill="#66736b">Lowest entry price observed each day · generated from the CSV files in this repository</text>
</svg>
